<svg xmlns="http://www.w3.org/2000/svg" viewBox="0 0 1024 1024"><path d="M772 845L772 795Q685 873 574.500 891Q464 909 358 864L358 864Q252 816 190.500 722Q129 628 128 512L128 512L192 512Q193 613 247.500 693Q302 773 396 810L396 810Q490 846 584.500 824Q679 802 748 728L748 728L655 728Q641 728 632 719Q623 710 623 696.500Q623 683 632 674Q641 665 655 664L655 664L804 664Q817 665 826 674Q835 683 836 696L836 696L836 845Q835 859 826 868Q817 877 803.500 877Q790 877 781 868Q772 859 772 845L772 845ZM276 296L276 296L369 296Q383 296 392 305Q401 314 401 327.500Q401 341 392 350Q383 359 369 360L369 360L220 360Q207 359 198 350Q189 341 188 328L188 328L188 179Q189 165 198 156Q207 147 220.500 147Q234 147 243 156Q252 165 252 179L252 179L252 229Q339 151 449.500 133Q560 115 667 160L667 160Q773 208 834 302Q895 396 896 512L896 512L832 512Q831 411 776.500 331Q722 251 628 214L628 214Q534 178 439.500 200Q345 222 276 296Z"/></svg>
